<svg id="Capa_1" enable-background="new 0 0 512.004 512.004" height="512" viewBox="0 0 512.004 512.004" width="512" xmlns="http://www.w3.org/2000/svg"><g><path d="m208.502 95h114.594c4.143 0 7.5-3.357 7.5-7.5s-3.357-7.5-7.5-7.5h-114.594c-.275 0-.5-.225-.5-.5v-19c0-.275.225-.5.5-.5h167c.275 0 .5.225.5.5v19c0 .275-.225.5-.5.5h-22.406c-4.143 0-7.5 3.357-7.5 7.5s3.357 7.5 7.5 7.5h22.406c8.547 0 15.5-6.953 15.5-15.5v-19c0-8.547-6.953-15.5-15.5-15.5h-167c-8.547 0-15.5 6.953-15.5 15.5v19c0 8.547 6.953 15.5 15.5 15.5zm210.5-95h-301c-28.948 0-52.5 23.552-52.5 52.5v399.5c0 24.813 20.187 45 45 45h30.204v2.494c-.052 6.769 5.716 12.51 12.493 12.51 1.881 0 3.77-.43 5.528-1.296l19.947-9.82 19.947 9.821c3.901 1.918 8.434 1.693 12.127-.603 3.69-2.298 5.895-6.265 5.895-10.612v-2.494h202.358c15.163 0 27.5-12.337 27.5-27.5v-442c.001-15.163-12.336-27.5-27.499-27.5zm-217.358 489.461c0 .013-.002.025-.002.039s.002.025.002.039v5.938l-17.447-8.59c-3.458-1.703-7.586-1.703-11.042 0l-17.448 8.59v-35.977h45.938v29.961zm229.858-19.961c0 6.893-5.607 12.5-12.5 12.5h-202.358v-22.5h177.358c4.143 0 7.5-3.357 7.5-7.5s-3.357-7.5-7.5-7.5h-276c-4.143 0-7.5 3.357-7.5 7.5s3.357 7.5 7.5 7.5h22.704v22.5h-30.204c-16.542 0-30-13.458-30-30 0-8.01 3.121-15.546 8.78-21.213 5.674-5.666 13.21-8.787 21.22-8.787h321zm0-62.5h-321c-11.174 0-21.729 4.053-30 11.461v-365.961c0-20.678 16.822-37.5 37.5-37.5h22.704v369.5c0 4.143 3.357 7.5 7.5 7.5s7.5-3.357 7.5-7.5v-369.5h263.296c6.893 0 12.5 5.607 12.5 12.5zm-74.77-44.5h-128.461c-4.143 0-7.5 3.357-7.5 7.5s3.357 7.5 7.5 7.5h128.461c4.143 0 7.5-3.357 7.5-7.5s-3.357-7.5-7.5-7.5zm22.809-139.463v-10.64c0-47.993-39.046-87.039-87.039-87.039s-87.039 39.046-87.039 87.039v10.64c-8.299 1.242-14.691 8.398-14.691 17.038v25.253c0 9.511 7.738 17.249 17.249 17.249h14.635c6.893 0 12.5-5.607 12.5-12.5v-34.751c-.034-7.802-7.027-13.421-14.692-12.5v-10.429c0-39.723 32.316-72.039 72.039-72.039s72.039 32.316 72.039 72.039v10.429c-7.643-.915-14.692 4.682-14.692 12.5v38.278c-2.473 5.843-7.033 13.742-15.179 20.461-3.339 2.754-6.976 5.068-10.868 6.923-3.544-6.493-10.436-10.909-18.34-10.909h-16.235c-11.514 0-20.88 9.366-20.88 20.88s9.366 20.88 20.88 20.88h16.235c9.581 0 17.654-6.494 20.102-15.306 6.78-2.629 13.043-6.271 18.651-10.897 9.049-7.465 14.639-16.042 18.029-23.059h14.74c9.511 0 17.249-7.738 17.249-17.249v-25.253c-.002-8.639-6.394-15.795-14.693-17.038zm-159.386 44.54h-12.135c-1.24 0-2.249-1.009-2.249-2.249v-25.253c0-1.24 1.009-2.249 2.249-2.249h12.135zm85.307 49.262h-16.235c-3.242 0-5.88-2.638-5.88-5.88s2.638-5.88 5.88-5.88h16.235c3.234 0 5.866 2.625 5.879 5.856v.043c-.011 3.234-2.643 5.861-5.879 5.861zm73.77-51.511c0 1.24-1.009 2.249-2.249 2.249h-12.135v-29.751h12.135c1.24 0 2.249 1.009 2.249 2.249z"/></g></svg>