<svg id="Capa_1" enable-background="new 0 0 512 512" height="512" viewBox="0 0 512 512" width="512" xmlns="http://www.w3.org/2000/svg"><g><path d="m377.5 68h-18.5v-18.5c0-4.142-3.358-7.5-7.5-7.5h-225.5v-8.5c0-18.472-15.028-33.5-33.5-33.5s-33.5 15.028-33.5 33.5v8.5h-37.5c-4.142 0-7.5 3.358-7.5 7.5v429c0 4.142 3.358 7.5 7.5 7.5h18.5v18.5c0 4.142 3.358 7.5 7.5 7.5h330c4.142 0 7.5-3.358 7.5-7.5v-429c0-4.142-3.358-7.5-7.5-7.5zm-303.5-34.5c0-10.201 8.299-18.5 18.5-18.5s18.5 8.299 18.5 18.5v8.5h-11v-8.5c0-4.142-3.358-7.5-7.5-7.5s-7.5 3.358-7.5 7.5v8.5h-11zm0 23.5h11v43.5c0 3.033-2.467 5.5-5.5 5.5s-5.5-2.467-5.5-5.5zm296 440h-315v-11h296.5c4.142 0 7.5-3.358 7.5-7.5v-130.5c0-4.142-3.358-7.5-7.5-7.5s-7.5 3.358-7.5 7.5v123h-315v-414h30v43.5c0 11.304 9.196 20.5 20.5 20.5s20.5-9.196 20.5-20.5v-43.5h11v28.019c0 4.142 3.358 7.5 7.5 7.5s7.5-3.358 7.5-7.5v-28.019h218v256c0 4.142 3.358 7.5 7.5 7.5s7.5-3.358 7.5-7.5v-230h11z"/><path d="m315.5 80.714h-102c-4.142 0-7.5 3.358-7.5 7.5s3.358 7.5 7.5 7.5h102c4.142 0 7.5-3.358 7.5-7.5s-3.358-7.5-7.5-7.5z"/><path d="m315.5 109h-72c-4.142 0-7.5 3.358-7.5 7.5s3.358 7.5 7.5 7.5h72c4.142 0 7.5-3.358 7.5-7.5s-3.358-7.5-7.5-7.5z"/><path d="m92.5 185h188c4.142 0 7.5-3.358 7.5-7.5v-25c0-4.142-3.358-7.5-7.5-7.5h-117.5c-4.142 0-7.5 3.358-7.5 7.5s3.358 7.5 7.5 7.5h110v10h-173v-10h28c4.142 0 7.5-3.358 7.5-7.5s-3.358-7.5-7.5-7.5h-35.5c-4.142 0-7.5 3.358-7.5 7.5v25c0 4.142 3.358 7.5 7.5 7.5z"/><path d="m57.5 221h161.5c4.142 0 7.5-3.358 7.5-7.5s-3.358-7.5-7.5-7.5h-161.5c-4.142 0-7.5 3.358-7.5 7.5s3.358 7.5 7.5 7.5z"/><path d="m315.5 206h-61.5c-4.142 0-7.5 3.358-7.5 7.5s3.358 7.5 7.5 7.5h61.5c4.142 0 7.5-3.358 7.5-7.5s-3.358-7.5-7.5-7.5z"/><path d="m315.5 234.286h-258c-4.142 0-7.5 3.358-7.5 7.5s3.358 7.5 7.5 7.5h258c4.142 0 7.5-3.358 7.5-7.5s-3.358-7.5-7.5-7.5z"/><path d="m57.5 277.57h51.5c4.142 0 7.5-3.358 7.5-7.5s-3.358-7.5-7.5-7.5h-51.5c-4.142 0-7.5 3.358-7.5 7.5s3.358 7.5 7.5 7.5z"/><path d="m315.5 262.57h-171.5c-4.142 0-7.5 3.358-7.5 7.5s3.358 7.5 7.5 7.5h171.5c4.142 0 7.5-3.358 7.5-7.5s-3.358-7.5-7.5-7.5z"/><path d="m315.5 290.857h-258c-4.142 0-7.5 3.358-7.5 7.5s3.358 7.5 7.5 7.5h258c4.142 0 7.5-3.358 7.5-7.5s-3.358-7.5-7.5-7.5z"/><path d="m57.5 334.143h69c4.142 0 7.5-3.358 7.5-7.5s-3.358-7.5-7.5-7.5h-69c-4.142 0-7.5 3.358-7.5 7.5s3.358 7.5 7.5 7.5z"/><path d="m315.5 347.429h-258c-4.142 0-7.5 3.358-7.5 7.5s3.358 7.5 7.5 7.5h258c4.142 0 7.5-3.358 7.5-7.5s-3.358-7.5-7.5-7.5z"/><path d="m57.5 390.71h116.5c4.142 0 7.5-3.358 7.5-7.5s-3.358-7.5-7.5-7.5h-116.5c-4.142 0-7.5 3.358-7.5 7.5s3.358 7.5 7.5 7.5z"/><path d="m315.5 375.71h-106.5c-4.142 0-7.5 3.358-7.5 7.5s3.358 7.5 7.5 7.5h106.5c4.142 0 7.5-3.358 7.5-7.5s-3.358-7.5-7.5-7.5z"/><path d="m315.5 404h-258c-4.142 0-7.5 3.358-7.5 7.5s3.358 7.5 7.5 7.5h258c4.142 0 7.5-3.358 7.5-7.5s-3.358-7.5-7.5-7.5z"/><path d="m235.5 432.286h-178c-4.142 0-7.5 3.358-7.5 7.5s3.358 7.5 7.5 7.5h178c4.142 0 7.5-3.358 7.5-7.5s-3.358-7.5-7.5-7.5z"/><path d="m490.5 263c-4.142 0-7.5 3.358-7.5 7.5v143.786c0 7.247-4.314 13.491-10.5 16.342v-301.283c0-3.508-.66-6.939-1.96-10.198l-16.727-41.889c-2.092-5.238-7.102-8.587-12.725-8.493-5.639.078-10.54 3.549-12.485 8.843l-15.417 41.967c-1.119 3.047-1.686 6.237-1.686 9.482v58.443c0 4.142 3.358 7.5 7.5 7.5s7.5-3.358 7.5-7.5v-23.5h31v127h-31v-69c0-4.142-3.358-7.5-7.5-7.5s-7.5 3.358-7.5 7.5v243.5c0 7.16 4.327 13.322 10.5 16.029v10.471c0 11.028 8.972 20 20 20s20-8.972 20-20v-10.471c6.173-2.707 10.5-8.868 10.5-16.029v-19.084c14.593-3.406 25.5-16.514 25.5-32.13v-143.786c0-4.142-3.358-7.5-7.5-7.5zm-49.166-176.544 14.193 35.544h-27.251zm-14.834 62.544v-12h31v12zm31 157v159.5c0 1.378-1.122 2.5-2.5 2.5h-.5-25-.5c-1.378 0-2.5-1.122-2.5-2.5v-159.5zm-10.5 186c0 2.757-2.243 5-5 5s-5-2.243-5-5v-9h10z"/></g></svg>