<svg id="Capa_1" enable-background="new 0 0 512 512" height="512" viewBox="0 0 512 512" width="512" xmlns="http://www.w3.org/2000/svg"><g><path d="m301 106c-82.71 0-150 67.29-150 150s67.29 150 150 150 150-67.29 150-150-67.29-150-150-150zm0 270c-66.168 0-120-53.832-120-120s53.832-120 120-120 120 53.832 120 120-53.832 120-120 120z"/><path d="m450.501 106.909c-39.66-39.77-92.547-61.757-148.921-61.909-.197 0-.388 0-.584 0-42.98 0-84.135 12.773-119.361 37h-102.126c-25.093 0-45.509 20.416-45.509 45.509s20.416 45.509 45.509 45.509h27.446c-3.544 8.282-6.552 16.788-9.005 25.472h-52.44c-25.094 0-45.51 20.416-45.51 45.51s20.416 45.509 45.509 45.509h47.153c1.375 8.612 3.283 17.116 5.711 25.472h-.707c-25.094 0-45.509 20.416-45.509 45.51s20.416 45.509 45.509 45.509h54.941c18.493 18.316 39.909 32.877 63.742 43.327 26.744 11.727 55.225 17.673 84.651 17.673 116.345 0 211-94.654 211-211 0-56.374-21.84-109.323-61.499-149.091zm-149.501 330.091c-50.092 0-96.693-20.006-131.218-56.333l-4.435-4.667h-67.68c-8.552 0-15.509-6.958-15.509-15.509 0-8.552 6.958-15.51 15.509-15.51h44.111l-8.43-20.666c-6.666-16.342-10.884-33.57-12.537-51.206l-1.274-13.601h-74.028c-8.551.001-15.509-6.956-15.509-15.508s6.958-15.51 15.509-15.51h76.172l2.601-11.761c3.983-18.008 10.685-35.235 19.919-51.201l13.019-22.51h-77.711c-8.552 0-15.509-6.958-15.509-15.509s6.958-15.509 15.509-15.509h111.728l3.932-2.839c30.957-22.354 67.539-34.161 105.829-34.161h.501c99.529.269 180.501 81.465 180.501 181 0 99.804-81.197 181-181 181z"/><path d="m316 171h-30v100h72v-30h-42z"/></g></svg>