<svg id="Layer_3" height="512" viewBox="0 0 64 64" width="512" xmlns="http://www.w3.org/2000/svg" data-name="Layer 3"><path d="m62 24h-13.586l7.257-7.258a4.535 4.535 0 0 0 -6.414-6.414l-2.257 2.258v-10.586a1 1 0 0 0 -1-1h-44a1 1 0 0 0 -1 1v60a1 1 0 0 0 1 1h44a1 1 0 0 0 1-1v-6h15a1 1 0 0 0 1-1v-30a1 1 0 0 0 -1-1zm-29.505 6.909 2.6 2.6-3.635 1.039zm4.505 1.677-3.586-3.586 10.586-10.586 3.586 3.586zm4-14-.414.414h-33.586v-12h34zm6-3.172 3.586 3.586-1.586 1.586-3.586-3.586zm3.671-3.672a2.536 2.536 0 1 1 3.586 3.586l-2.257 2.258-3.586-3.586zm-5.671 49.258h-42v-58h42v11.586l-2 2v-10.586a1 1 0 0 0 -1-1h-36a1 1 0 0 0 -1 1v14a1 1 0 0 0 1 1h32.586l-3 3h-17.586a1 1 0 0 0 -1 1v10.465l-2 1.335v-.8a1 1 0 0 0 -1-1h-8a1 1 0 0 0 -1 1v8a1 1 0 0 0 1 1h8a1 1 0 0 0 1-1v-.8l2 1.333v10.467a1 1 0 0 0 1 1h27zm-32-22.868-1.555 1.036a1 1 0 0 0 0 1.664l1.555 1.036v1.132h-6v-6h6zm48 15.868h-42v-10a1 1 0 0 0 -.445-.832l-4.755-3.168 4.752-3.168a1 1 0 0 0 .448-.832v-10h14.586l-2.293 2.293a.992.992 0 0 0 -.254.433l-2 7a1 1 0 0 0 .961 1.274 1.036 1.036 0 0 0 .275-.038l7-2a1.006 1.006 0 0 0 .432-.255l8.707-8.707h14.586z"/><path d="m6 33h8a1 1 0 0 0 1-1v-8a1 1 0 0 0 -1-1h-8a1 1 0 0 0 -1 1v8a1 1 0 0 0 1 1zm1-8h6v6h-6z"/><path d="m14 47h-8a1 1 0 0 0 -1 1v8a1 1 0 0 0 1 1h8a1 1 0 0 0 1-1v-8a1 1 0 0 0 -1-1zm-1 8h-6v-6h6z"/><path d="m23 31h4v2h-4z"/><path d="m46 31h13v2h-13z"/><path d="m43 35h16v2h-16z"/><path d="m21 39h38v2h-38z"/><path d="m21 43h38v2h-38z"/><path d="m21 47h38v2h-38z"/><path d="m13 10h20v2h-20z"/><path d="m35 10h4v2h-4z"/><path d="m9 14h30v2h-30z"/></svg>