<svg height="496pt" viewBox="0 0 496 496" width="496pt" xmlns="http://www.w3.org/2000/svg"><path d="m80 80h16v16h-16zm0 0"/><path d="m112 80h16v16h-16zm0 0"/><path d="m144 80h16v16h-16zm0 0"/><path d="m464 126.296875v-94.296875h-94.191406c-37.007813-20.902344-79.046875-32-121.808594-32-53.214844 0-103.808594 16.640625-146.535156 48h-53.464844v53.496094c-31.359375 42.710937-48 93.28125-48 146.503906 0 136.753906 111.257812 248 248 248s248-111.246094 248-248c0-42.761719-11.113281-84.703125-32-121.703125zm16 121.703125c0 19.894531-2.519531 39.214844-7.257812 57.664062-5.527344-14.136718-14.0625-26.617187-24.742188-36.847656v-44.816406h16v-60.449219c10.457031 26.777344 16 55.402344 16 84.449219zm-39.222656 128.910156c-4.066406-3.238281-8.65625-5.773437-13.65625-7.207031l-27.121094-7.734375v-2.136719c9.96875-7.511719 16-19.328125 16-31.832031v-14.34375c0-21.496094-16.007812-39.726562-36.449219-41.503906-11.191406-.992188-22.34375 2.808594-30.574219 10.351562-8.25 7.566406-12.976562 18.320313-12.976562 29.496094v16c0 12.503906 6.03125 24.320312 16 31.832031v2.136719l-27.121094 7.742188c-10.710937 3.058593-19.253906 10.25-24.191406 19.578124-8-13.25-12.6875-28.714843-12.6875-45.289062 0-48.519531 39.480469-88 88-88 45.199219 0 82.390625 33.488281 87.335938 78.167969-6.054688 15.089843-13.617188 29.417969-22.558594 42.742187zm-49.976563 53.738282c-4.976562.847656-9.945312 1.351562-14.800781 1.351562-18.769531 0-36.136719-5.953125-50.441406-16h82.183594c-5.40625 5.144531-11.0625 10.03125-16.941407 14.648438zm-77.402343-30.648438c2.503906-7.121094 8.296874-12.734375 15.875-14.894531l38.726562-11.074219v-23.070312l-3.976562-2.3125c-7.527344-4.382813-12.023438-12.105469-12.023438-20.648438v-16c0-6.710938 2.839844-13.160156 7.792969-17.695312 5.007812-4.601563 11.496093-6.800782 18.382812-6.207032 12.230469 1.0625 21.824219 12.285156 21.824219 25.558594v14.34375c0 8.542969-4.496094 16.265625-12.023438 20.648438l-3.976562 2.3125v23.070312l38.71875 11.074219c3.242188.925781 6.144531 2.574219 8.679688 4.734375-2.6875 3.472656-5.46875 6.855468-8.351563 10.167968h-109.648437zm-38.496094-32h-210.902344v-240h240v96h128v32.207031c-16.167969-10.277343-35.375-16.207031-56-16.207031-57.34375 0-104 46.65625-104 104 0 8.273438 1.070312 16.28125 2.902344 24zm173.097656-237.65625v.007812 77.648438h-128v-160h128zm-200-114.34375c29.039062 0 57.703125 5.535156 84.496094 16h-28.496094v16h-173.34375c35.464844-20.902344 75.511719-32 117.34375-32zm56 48v48h-240v-48zm-256 66.65625v234.710938c-20.304688-34.457032-32-74.558594-32-117.367188 0-41.839844 11.105469-81.886719 32-117.34375zm12.214844 253.34375h219.808594c14.503906 34.671875 47.265624 59.855469 86.207031 63.503906-34.65625 20.617188-75.070313 32.496094-118.230469 32.496094-77.152344 0-145.585938-37.886719-187.785156-96zm0 0"/><path d="m80 352h176v-80h-176zm16-64h144v48h-144zm0 0"/><path d="m112 304h16v16h-16zm0 0"/><path d="m144 304h16v16h-16zm0 0"/><path d="m176 304h16v16h-16zm0 0"/><path d="m208 304h16v16h-16zm0 0"/><path d="m80 144h16v16h-16zm0 0"/><path d="m112 144h176v16h-176zm0 0"/><path d="m80 176h208v16h-208zm0 0"/><path d="m80 208h208v16h-208zm0 0"/><path d="m80 240h208v16h-208zm0 0"/><path d="m392 184c0 4.417969-3.582031 8-8 8s-8-3.582031-8-8 3.582031-8 8-8 8 3.582031 8 8zm0 0"/><path d="m367.070312 145.054688c1.066407 8.519531 8.34375 14.945312 16.929688 14.945312s15.863281-6.425781 16.929688-14.945312l6.933593-55.503907c.097657-.703125.136719-1.40625.136719-2.109375 0-12.929687-10.511719-23.441406-23.441406-23.441406h-1.117188c-12.929687 0-23.441406 10.511719-23.441406 23.441406 0 .703125.039062 1.414063.136719 2.117188zm16.371094-65.054688h1.125c4.105469 0 7.441406 3.335938 7.433594 7.566406l-6.9375 55.503906c-.132812 1.066407-1.972656 1.066407-2.109375 0l-6.9375-55.503906-.015625-.125c0-4.105468 3.335938-7.441406 7.441406-7.441406zm0 0"/></svg>